<mxfile host="Electron" agent="Mozilla/5.0 (Windows NT 10.0; Win64; x64) AppleWebKit/537.36 (KHTML, like Gecko) draw.io/24.7.8 Chrome/128.0.6613.36 Electron/32.0.1 Safari/537.36" version="24.7.8">
  <diagram name="페이지-1" id="MG6iiIRobQUFuiMI-4cR">
    <mxGraphModel dx="593" dy="696" grid="1" gridSize="10" guides="1" tooltips="1" connect="1" arrows="1" fold="1" page="1" pageScale="1" pageWidth="827" pageHeight="1169" math="0" shadow="0">
      <root>
        <mxCell id="0" />
        <mxCell id="1" parent="0" />
        <mxCell id="rFgy_qTzhRWV8EN2Hvdq-1" value="100*" style="rounded=0;whiteSpace=wrap;html=1;" vertex="1" parent="1">
          <mxGeometry x="140" y="260" width="110" height="50" as="geometry" />
        </mxCell>
        <mxCell id="rFgy_qTzhRWV8EN2Hvdq-2" value="pt01" style="text;html=1;align=center;verticalAlign=middle;whiteSpace=wrap;rounded=0;" vertex="1" parent="1">
          <mxGeometry x="130" y="220" width="60" height="30" as="geometry" />
        </mxCell>
        <mxCell id="rFgy_qTzhRWV8EN2Hvdq-3" value="" style="endArrow=none;html=1;rounded=0;" edge="1" parent="1">
          <mxGeometry width="50" height="50" relative="1" as="geometry">
            <mxPoint x="340" y="610" as="sourcePoint" />
            <mxPoint x="340" y="140" as="targetPoint" />
          </mxGeometry>
        </mxCell>
        <mxCell id="rFgy_qTzhRWV8EN2Hvdq-4" value="200*" style="rounded=0;whiteSpace=wrap;html=1;" vertex="1" parent="1">
          <mxGeometry x="145" y="380" width="110" height="50" as="geometry" />
        </mxCell>
        <mxCell id="rFgy_qTzhRWV8EN2Hvdq-5" value="pt02" style="text;html=1;align=center;verticalAlign=middle;whiteSpace=wrap;rounded=0;" vertex="1" parent="1">
          <mxGeometry x="135" y="340" width="60" height="30" as="geometry" />
        </mxCell>
        <mxCell id="rFgy_qTzhRWV8EN2Hvdq-6" value="" style="rounded=0;whiteSpace=wrap;html=1;fontStyle=1" vertex="1" parent="1">
          <mxGeometry x="400" y="250" width="110" height="50" as="geometry" />
        </mxCell>
        <mxCell id="rFgy_qTzhRWV8EN2Hvdq-7" value="" style="rounded=0;whiteSpace=wrap;html=1;" vertex="1" parent="1">
          <mxGeometry x="400" y="380" width="110" height="50" as="geometry" />
        </mxCell>
        <mxCell id="rFgy_qTzhRWV8EN2Hvdq-8" value="s" style="text;html=1;align=center;verticalAlign=middle;whiteSpace=wrap;rounded=0;" vertex="1" parent="1">
          <mxGeometry x="145" y="140" width="60" height="30" as="geometry" />
        </mxCell>
        <mxCell id="rFgy_qTzhRWV8EN2Hvdq-9" value="h" style="text;html=1;align=center;verticalAlign=middle;whiteSpace=wrap;rounded=0;" vertex="1" parent="1">
          <mxGeometry x="400" y="140" width="60" height="30" as="geometry" />
        </mxCell>
        <mxCell id="rFgy_qTzhRWV8EN2Hvdq-10" value="c" style="text;html=1;align=center;verticalAlign=middle;whiteSpace=wrap;rounded=0;" vertex="1" parent="1">
          <mxGeometry x="610" y="140" width="60" height="30" as="geometry" />
        </mxCell>
        <mxCell id="rFgy_qTzhRWV8EN2Hvdq-11" value="" style="endArrow=none;html=1;rounded=0;" edge="1" parent="1">
          <mxGeometry width="50" height="50" relative="1" as="geometry">
            <mxPoint x="570" y="610" as="sourcePoint" />
            <mxPoint x="570" y="140" as="targetPoint" />
          </mxGeometry>
        </mxCell>
        <mxCell id="rFgy_qTzhRWV8EN2Hvdq-13" value="100" style="text;html=1;align=center;verticalAlign=middle;whiteSpace=wrap;rounded=0;" vertex="1" parent="1">
          <mxGeometry x="390" y="220" width="60" height="30" as="geometry" />
        </mxCell>
        <mxCell id="rFgy_qTzhRWV8EN2Hvdq-14" value="200" style="text;html=1;align=center;verticalAlign=middle;whiteSpace=wrap;rounded=0;" vertex="1" parent="1">
          <mxGeometry x="390" y="350" width="60" height="30" as="geometry" />
        </mxCell>
        <mxCell id="rFgy_qTzhRWV8EN2Hvdq-15" value="" style="endArrow=classic;html=1;rounded=0;" edge="1" parent="1">
          <mxGeometry width="50" height="50" relative="1" as="geometry">
            <mxPoint x="280" y="400" as="sourcePoint" />
            <mxPoint x="390" y="400" as="targetPoint" />
          </mxGeometry>
        </mxCell>
        <mxCell id="rFgy_qTzhRWV8EN2Hvdq-16" value="" style="endArrow=classic;html=1;rounded=0;" edge="1" parent="1">
          <mxGeometry width="50" height="50" relative="1" as="geometry">
            <mxPoint x="270" y="274.5" as="sourcePoint" />
            <mxPoint x="380" y="274.5" as="targetPoint" />
          </mxGeometry>
        </mxCell>
        <mxCell id="rFgy_qTzhRWV8EN2Hvdq-17" value="" style="endArrow=none;dashed=1;html=1;dashPattern=1 3;strokeWidth=2;rounded=0;" edge="1" parent="1">
          <mxGeometry width="50" height="50" relative="1" as="geometry">
            <mxPoint x="454.5" y="300" as="sourcePoint" />
            <mxPoint x="454.5" y="250" as="targetPoint" />
          </mxGeometry>
        </mxCell>
        <mxCell id="rFgy_qTzhRWV8EN2Hvdq-18" value="" style="endArrow=none;dashed=1;html=1;dashPattern=1 3;strokeWidth=2;rounded=0;" edge="1" parent="1">
          <mxGeometry width="50" height="50" relative="1" as="geometry">
            <mxPoint x="456.5" y="431" as="sourcePoint" />
            <mxPoint x="456.5" y="381" as="targetPoint" />
          </mxGeometry>
        </mxCell>
        <mxCell id="rFgy_qTzhRWV8EN2Hvdq-32" value="" style="group" vertex="1" connectable="0" parent="1">
          <mxGeometry x="619" y="301" width="220" height="200" as="geometry" />
        </mxCell>
        <mxCell id="rFgy_qTzhRWV8EN2Hvdq-23" value="" style="rounded=0;whiteSpace=wrap;html=1;container=0;" vertex="1" parent="rFgy_qTzhRWV8EN2Hvdq-32">
          <mxGeometry width="120" height="50" as="geometry" />
        </mxCell>
        <mxCell id="rFgy_qTzhRWV8EN2Hvdq-24" value="public Point04()" style="text;html=1;align=center;verticalAlign=middle;whiteSpace=wrap;rounded=0;container=0;" vertex="1" parent="rFgy_qTzhRWV8EN2Hvdq-32">
          <mxGeometry x="10" y="15" width="100" height="20" as="geometry" />
        </mxCell>
        <mxCell id="rFgy_qTzhRWV8EN2Hvdq-26" value="" style="rounded=0;whiteSpace=wrap;html=1;container=0;" vertex="1" parent="rFgy_qTzhRWV8EN2Hvdq-32">
          <mxGeometry y="50" width="120" height="50" as="geometry" />
        </mxCell>
        <mxCell id="rFgy_qTzhRWV8EN2Hvdq-27" value="public Point04(int x)" style="text;html=1;align=center;verticalAlign=middle;whiteSpace=wrap;rounded=0;container=0;" vertex="1" parent="rFgy_qTzhRWV8EN2Hvdq-32">
          <mxGeometry x="1" y="70" width="120" height="20" as="geometry" />
        </mxCell>
        <mxCell id="rFgy_qTzhRWV8EN2Hvdq-28" value="" style="rounded=0;whiteSpace=wrap;html=1;container=0;" vertex="1" parent="rFgy_qTzhRWV8EN2Hvdq-32">
          <mxGeometry y="100" width="120" height="50" as="geometry" />
        </mxCell>
        <mxCell id="rFgy_qTzhRWV8EN2Hvdq-29" value="&lt;div&gt;public Point04(int x,int y)&lt;br&gt;&lt;/div&gt;&lt;div&gt;&lt;span style=&quot;white-space: pre; white-space: normal;&quot;&gt;&#x9;&lt;/span&gt;&lt;/div&gt;" style="text;html=1;align=center;verticalAlign=middle;whiteSpace=wrap;rounded=0;container=0;" vertex="1" parent="rFgy_qTzhRWV8EN2Hvdq-32">
          <mxGeometry x="-9" y="115" width="170" height="20" as="geometry" />
        </mxCell>
        <mxCell id="rFgy_qTzhRWV8EN2Hvdq-30" value="" style="rounded=0;whiteSpace=wrap;html=1;container=0;" vertex="1" parent="rFgy_qTzhRWV8EN2Hvdq-32">
          <mxGeometry y="150" width="120" height="50" as="geometry" />
        </mxCell>
        <mxCell id="rFgy_qTzhRWV8EN2Hvdq-31" value="public void showPoint04()" style="text;html=1;align=center;verticalAlign=middle;whiteSpace=wrap;rounded=0;container=0;" vertex="1" parent="rFgy_qTzhRWV8EN2Hvdq-32">
          <mxGeometry x="-29" y="165" width="190" height="20" as="geometry" />
        </mxCell>
        <mxCell id="rFgy_qTzhRWV8EN2Hvdq-33" value="" style="rounded=0;whiteSpace=wrap;html=1;" vertex="1" parent="1">
          <mxGeometry x="620" y="210" width="110" height="50" as="geometry" />
        </mxCell>
        <mxCell id="rFgy_qTzhRWV8EN2Hvdq-34" value="this" style="text;html=1;align=center;verticalAlign=middle;whiteSpace=wrap;rounded=0;" vertex="1" parent="1">
          <mxGeometry x="610" y="180" width="60" height="30" as="geometry" />
        </mxCell>
        <mxCell id="rFgy_qTzhRWV8EN2Hvdq-36" value="" style="endArrow=classic;startArrow=classic;html=1;rounded=0;entryX=0;entryY=0.4;entryDx=0;entryDy=0;entryPerimeter=0;" edge="1" parent="1" target="rFgy_qTzhRWV8EN2Hvdq-33">
          <mxGeometry width="50" height="50" relative="1" as="geometry">
            <mxPoint x="510" y="290" as="sourcePoint" />
            <mxPoint x="560" y="240" as="targetPoint" />
          </mxGeometry>
        </mxCell>
        <mxCell id="rFgy_qTzhRWV8EN2Hvdq-37" value="" style="endArrow=classic;startArrow=classic;html=1;rounded=0;" edge="1" parent="1">
          <mxGeometry width="50" height="50" relative="1" as="geometry">
            <mxPoint x="660" y="300" as="sourcePoint" />
            <mxPoint x="660" y="260" as="targetPoint" />
          </mxGeometry>
        </mxCell>
        <mxCell id="rFgy_qTzhRWV8EN2Hvdq-38" value="" style="endArrow=none;dashed=1;html=1;dashPattern=1 3;strokeWidth=2;rounded=0;" edge="1" parent="1">
          <mxGeometry width="50" height="50" relative="1" as="geometry">
            <mxPoint x="669.17" y="260" as="sourcePoint" />
            <mxPoint x="669.17" y="210" as="targetPoint" />
          </mxGeometry>
        </mxCell>
      </root>
    </mxGraphModel>
  </diagram>
</mxfile>
